<?xml version="1.0" standalone="no"?>
<!DOCTYPE svg PUBLIC "-//W3C//DTD SVG 20010904//EN"
 "http://www.w3.org/TR/2001/REC-SVG-20010904/DTD/svg10.dtd">
<svg version="1.0" xmlns="http://www.w3.org/2000/svg"
 width="700.000000pt" height="700.000000pt" viewBox="0 0 700.000000 700.000000"
 preserveAspectRatio="xMidYMid meet">
<metadata>
Created by potrace 1.14, written by Peter Selinger 2001-2017
</metadata>
<g transform="translate(0.000000,700.000000) scale(0.100000,-0.100000)"
fill="#000000" stroke="none">
<path d="M4965 5107 l-380 -153 -25 51 c-34 65 -97 106 -166 107 -55 0 -319
-75 -346 -99 -49 -44 -16 -133 50 -133 9 0 79 19 155 42 138 42 138 42 158 22
50 -51 55 -37 -293 -764 -178 -371 -341 -701 -362 -732 -50 -76 -123 -141
-177 -158 -62 -19 -202 -14 -351 13 -71 13 -129 26 -131 28 -2 2 -85 225 -184
494 -116 316 -176 492 -169 496 6 4 73 14 149 24 l139 18 -7 46 c-8 55 -27 87
-56 96 -28 9 -505 -54 -545 -72 -44 -20 -54 -48 -41 -112 10 -51 11 -53 38
-47 16 3 57 8 92 12 l64 6 26 -68 c15 -38 44 -118 67 -179 l40 -110 -70 -68
-69 -69 -65 46 c-84 61 -230 129 -336 158 -119 32 -376 32 -492 0 -165 -45
-317 -127 -430 -231 l-53 -49 23 -24 c12 -13 22 -27 22 -31 0 -3 -23 -36 -50
-73 -188 -247 -247 -591 -154 -887 50 -157 116 -269 228 -385 173 -179 376
-279 614 -301 298 -27 570 73 782 288 148 149 220 289 275 535 6 28 6 28 63
22 115 -14 118 -15 136 -56 30 -69 104 -71 136 -4 14 30 18 32 90 37 200 16
352 112 476 302 28 44 121 222 205 395 162 334 187 378 244 429 37 32 145 91
167 91 12 0 84 -168 76 -176 -2 -1 -39 -26 -83 -55 -301 -196 -476 -544 -451
-896 53 -755 887 -1174 1511 -758 412 274 555 798 340 1252 -56 118 -92 170
-184 267 -166 172 -362 269 -596 296 -103 12 -258 3 -335 -20 -19 -5 -40 -10
-47 -10 -10 0 -79 159 -71 164 2 2 39 15 83 30 166 58 347 165 410 242 85 103
142 228 190 411 44 166 80 454 58 453 -5 -1 -179 -69 -388 -153z m-2127 -1528
c41 -110 71 -203 68 -206 -14 -14 -35 12 -78 98 -25 52 -70 125 -98 162 l-52
69 38 39 c21 21 41 39 44 39 3 0 38 -90 78 -201z m2337 107 c255 -81 443 -300
485 -569 23 -140 -1 -281 -73 -427 -33 -68 -59 -103 -132 -176 -77 -79 -103
-98 -185 -137 -211 -102 -409 -102 -619 0 -164 79 -297 234 -358 418 -24 71
-27 95 -27 215 0 120 3 144 27 215 37 110 90 197 172 281 62 63 159 133 170
122 2 -2 51 -124 109 -270 104 -265 105 -268 91 -303 -19 -43 -7 -106 26 -141
50 -53 149 -56 200 -5 68 68 51 184 -33 224 -32 15 -39 29 -135 274 -56 142
-103 265 -105 273 -5 23 92 40 207 35 70 -2 124 -11 180 -29z m-3469 -443
l258 -237 330 -43 c182 -23 337 -42 344 -43 30 -1 -6 -152 -60 -250 -194 -348
-628 -471 -968 -273 -83 49 -204 170 -253 253 -114 197 -127 452 -33 656 32
68 103 174 117 174 4 0 123 -107 265 -237z"/>
</g>
</svg>
