<svg viewBox="0 0 23 22" fill="none" xmlns="http://www.w3.org/2000/svg">
  <path d="M9.00977 2.34146L14.1908 13.7355L13.9758 15.3529L16.8232 21.5527H22.998L12.982 0.333252L9.00977 2.34146Z" fill="#1E4B70"/>
  <path d="M5.61315 18.1259C5.65805 18.0994 5.71695 18.0553 5.79056 17.9919L9.05316 14.7286C9.05316 14.7286 9.29904 14.4754 9.34909 14.3937C9.39915 14.3127 9.42418 14.214 9.42418 14.0977C9.42418 13.977 9.39621 13.8717 9.341 13.7827C9.28579 13.6936 9.05316 13.4676 9.05316 13.4676L5.79056 10.2123C5.72799 10.149 5.67351 10.1034 5.62934 10.0747C5.58444 10.046 5.52039 10.0312 5.43647 10.0312H3.6631C3.60494 10.0312 3.5593 10.0548 3.52544 10.1027C3.49084 10.1498 3.47391 10.202 3.47391 10.2602C3.47391 10.339 3.50924 10.3824 3.56887 10.4494C3.56887 10.4494 5.94 12.7955 6.05557 12.9103C6.16231 13.0171 6.11594 13.1164 5.97754 13.1164H0.657408C0.562445 13.1164 0.48515 13.1474 0.423313 13.2085C0.362213 13.2696 0.332031 13.3476 0.332031 13.4418V14.7706C0.332031 14.8596 0.363686 14.934 0.42773 14.9921C0.491775 15.0503 0.568334 15.0797 0.657408 15.0797H5.97607C6.10563 15.0797 6.14906 15.1828 6.0541 15.2778C5.95914 15.3735 3.5674 17.7475 3.5674 17.7475C3.50777 17.8131 3.47243 17.8661 3.47243 17.9441C3.47243 17.9971 3.49084 18.0472 3.52765 18.0943C3.56445 18.1421 3.60862 18.1649 3.66162 18.1649H5.435C5.50935 18.1649 5.56824 18.1524 5.61315 18.1259Z" fill="#1E4B70"/>
</svg>
