<svg viewBox="0 0 23 22" fill="none" xmlns="http://www.w3.org/2000/svg">
  <path d="m9.01 2.341 5.18 11.395-.214 1.617 2.847 6.2h6.175L12.982.333 9.01 2.341ZM5.613 18.126c.045-.027.104-.07.178-.134l3.262-3.263s.246-.254.296-.335a.553.553 0 0 0 .075-.296.586.586 0 0 0-.083-.315 3.042 3.042 0 0 0-.288-.315l-3.262-3.256a1.027 1.027 0 0 0-.162-.137.358.358 0 0 0-.193-.044H3.663a.16.16 0 0 0-.138.072.259.259 0 0 0-.051.157c0 .079.035.122.095.19l2.487 2.46c.106.107.06.206-.078.206H.658a.319.319 0 0 0-.235.093.316.316 0 0 0-.091.233v1.329c0 .089.032.163.096.221a.33.33 0 0 0 .23.088h5.318c.13 0 .173.103.078.198l-2.487 2.47c-.06.065-.095.118-.095.196a.24.24 0 0 0 .056.15c.036.048.08.07.134.07h1.773a.348.348 0 0 0 .178-.038Z" fill="#1E4B70"/>
</svg>
