<svg fill="none" viewBox="0 0 24 24" xmlns="http://www.w3.org/2000/svg"><path d="m.93891 10.9828-.05181.3684c.23027-.213.58718-.4893 1.05346-.7368l-.39145-.0691c-.28783-.0576-.564147.1439-.6102.4375z" fill="#0075b0"/><path d="m8.59523 16.0256h-1.02468c-.06332 0-.12089-.0518-.12089-.1209v-.1842c0-.0633.05181-.1209.12089-.1209h1.02468c.06332 0 .12089.0518.12089.1209v.1842c-.00576.0633-.05757.1209-.12089.1209z" fill="#0075b0"/><path d="m8.06562 16.0083 2.66528.1037c.1037-.0173.1958-.0922.2303-.2015.0576-.1612-.0288-.3339-.19-.3857-.0287-.0115-.0575-.0173-.0863-.0173l-2.60201.1094c-.08635 0-.16119.0518-.18997.1324-.03454.1036.01727.213.12089.2475.01727.0058.03454.0115.05181.0115z" fill="#0075b0"/><path d="m8.0829 16.0083c.1081 0 .19573-.0876.19573-.1957s-.08763-.1957-.19573-.1957c-.10809 0-.19572.0876-.19572.1957s.08763.1957.19572.1957z" fill="#0075b0"/><path d="m8.16349 14.9606c0 2.0091-1.62913 3.6382-3.63819 3.6382-2.00907 0-3.638199-1.6291-3.638199-3.6382 0-2.009 1.629129-3.6382 3.638199-3.6382 2.00906 0 3.63819 1.6292 3.63819 3.6382zm-3.63819-3.9835c-2.19904 0-3.983598 1.7845-3.983598 3.9835 0 2.1991 1.784558 3.9836 3.983598 3.9836 2.19903 0 3.98359-1.7845 3.98359-3.9836 0-2.199-1.78456-3.9835-3.98359-3.9835z" fill="#0075b0"/><path d="m8.95214 14.9607c0 2.4465-1.98028 4.4268-4.42685 4.4268s-4.4268556-1.9803-4.4268556-4.4268c0-2.4466 1.9802856-4.4269 4.4268556-4.4269s4.42685 1.9861 4.42685 4.4269zm-4.42685-3.9836c-2.19904 0-3.983594 1.7845-3.983594 3.9836 0 2.199 1.784554 3.9836 3.983594 3.9836 2.19903 0 3.98359-1.7846 3.98359-3.9836 0-2.1991-1.78456-3.9836-3.98359-3.9836z" fill="#0075b0"/><path d="m4.52529 16.0544c.60407 0 1.09377-.4897 1.09377-1.0938 0-.604-.4897-1.0937-1.09377-1.0937-.60406 0-1.09376.4897-1.09376 1.0937 0 .6041.4897 1.0938 1.09376 1.0938z" fill="#0075b0"/><path d="m23.2113 14.9606c0 2.0091-1.6291 3.6382-3.6382 3.6382-2.009 0-3.6381-1.6291-3.6381-3.6382 0-2.009 1.6291-3.6382 3.6381-3.6382 2.0091 0 3.6382 1.6292 3.6382 3.6382zm-3.6382-3.9835c-2.199 0-3.9835 1.7845-3.9835 3.9835 0 2.1991 1.7845 3.9836 3.9835 3.9836 2.1991 0 3.9836-1.7845 3.9836-3.9836 0-2.199-1.7845-3.9835-3.9836-3.9835z" fill="#0075b0"/><path d="m24 14.9607c0 2.4465-1.9803 4.4268-4.4269 4.4268-2.4465 0-4.4268-1.9803-4.4268-4.4268 0-2.4466 1.9803-4.4269 4.4268-4.4269 2.4466 0 4.4269 1.9861 4.4269 4.4269zm-4.4269-3.9836c-2.199 0-3.9835 1.7845-3.9835 3.9836 0 2.199 1.7845 3.9836 3.9835 3.9836 2.1991 0 3.9836-1.7846 3.9836-3.9836 0-2.1991-1.7845-3.9836-3.9836-3.9836z" fill="#0075b0"/><path d="m19.5731 15.9047c.5215 0 .9441-.4227.9441-.9441s-.4226-.9441-.9441-.9441c-.5214 0-.944.4227-.944.9441s.4226.9441.944.9441z" fill="#0075b0"/><path d="m15.296 16.1292c-.1037-.3799-.1555-.7771-.1555-1.1916.0115-2.4408 2.0206-4.4211 4.4557-4.4038.2763 0 .5469.0288.8117.0806l.0057-.3339c0-.0288-.023-.0576-.0518-.0576-.259-.0403-.5239-.0633-.7944-.0633-2.6596 0-4.8126 2.153-4.8126 4.8126 0 .4432.1785 1.2146.2418 1.4852.0115.0403.0576.046.0806.0115z" fill="#0075b0"/><path d="m9.23422 13.3315c-.45477-1.0707-1.81909-3.2985-4.8989-3.2985-2.53867 0-3.908753 1.6751-4.3174738 2.2623-.0518097.0691.0172699.167.1036198.1439l1.922714-.4778s2.27963-.5871 2.27963 2.7172z" fill="#0075b0"/><path d="m16.3667 9.37673 1.4219 3.44827c.0115.023.023.0402.0345.0633l1.5428 2.1933c.0403.0863.1324.1381.2303.1324.1151-.0058.213-.1037.2187-.2246 0-.0402-.0057-.0748-.023-.1093l-1.5255-2.4408c-.0115-.0231-.023-.0461-.0345-.0749l-.5181-1.6291c-.2591-.80594-.5757-4.85285-.5757-4.85285l-1.2492 1.04195z" fill="#0075b0"/><path d="m19.9531 14.3965c.236.3512.1842.7944-.1036.9901-.2936.1958-.7196.0634-.9499-.2878-.236-.3511-.3454-1.6694-.3454-1.6694s1.1629.6102 1.3989.9671z" fill="#0075b0"/><path d="m19.5731 15.1563c.1081 0 .1958-.0876.1958-.1957s-.0877-.1957-.1958-.1957-.1957.0876-.1957.1957.0876.1957.1957.1957z" fill="#0075b0"/><path d="m19.5731 15.2081c.1368 0 .2476-.1108.2476-.2475s-.1108-.2475-.2476-.2475c-.1367 0-.2475.1108-.2475.2475s.1108.2475.2475.2475z" fill="#0075b0"/><path d="m9.32058 10.5108-.43751.1381-.49507-1.56004.4375-.14391z" fill="#0075b0"/><path d="m6.97186 8.5708.213.36843c.02303.03454.05757.05756.09786.05756l.92106.00576" fill="#0075b0"/><path d="m6.97186 8.5708.213.36843c.02303.03454.05757.05756.09786.05756l.92106.00576" stroke="#0075b0" stroke-miterlimit="10" stroke-width=".172699"/><path d="m7.6051 8.61108.23603.48932c.01726.04029.06332.06332.10361.05756l.44327-.06332" fill="#0075b0"/><path d="m7.6051 8.61108.23603.48932c.01726.04029.06332.06332.10361.05756l.44327-.06332" stroke="#0075b0" stroke-miterlimit="10" stroke-width=".172699"/><g fill="#0075b0"><path d="m8.4801 9.17521c.26389 0 .47781-.21392.47781-.4778 0-.26389-.21392-.47781-.47781-.47781-.26388 0-.4778.21392-.4778.47781 0 .26388.21392.4778.4778.4778z"/><path d="m8.19227 8.12754c-.19572-.09211-1.08224-.42024-1.47945.35115-.04606.09211.00575.20724.10937.23603l.94985.18997s.54112.11513.68504-.14392c.02878-.05181.08635-.08059.14392-.08059l1.8133-.02303s.0864-.53537-.47777-.53537l-1.65791.02303c-.02878.00576-.05756 0-.08635-.01727z"/><path d="m6.43075 15.1046-.01727.2878c-.00576.0921.06332.1727.14967.19l2.40052.3914c.0921.0173.17845-.046.18997-.1439l.0921-.6447c.01727-.1382-.08635-.2648-.23026-.2648l-2.39476-.0058c-.09787-.0058-.18997.0806-.18997.19zm2.2163-4.8529.66202-.1497.86923 2.5675c.023.0748.0864.1267.1612.1382l2.176.4317c.0806.0173.1554-.0173.2015-.0863l3.2813-5.08315c.0345-.05181.046-.12089.0288-.17845l-.167-.58718c-.0172-.05181-.0633-.09211-.1151-.09211l-.0979-.00575c-.0691-.00576-.1266-.04606-.1439-.11514l-.0576-.19572c-.0518-.16694-.0287-.35116.0634-.50083l1.7615-1.49673c.0461-.04029.1151-.00575.1094.05757l-.0806 1.08225-1.0765.9556c-.0461.0403-.0633.09786-.0461.15543l.1497.58142.7484 1.03044-4.9738 7.90965c-.2878.4605-.7944.7368-1.3355.7368h-.3224c-.2936 0-.57564-.1094-.78864-.3051l-.5699-.5123c-.09787-.0864-.21875-.1497-.35116-.1727l-4.55925-.8232c-.16119-.0288-.27632-.1727-.27632-.3339v-.0633c.01151-.5527.40872-1.0247.9556-1.1341l4.61107-.9326c.05756-.0115.08635-.069.06908-.1209z"/><path d="m12.337 15.7953c0 .9211-.7483 1.6637-1.6636 1.6637-.79444 0-1.46221-.5584-1.62915-1.301"/><path d="m8.57797 10.4417c.08266 0 .14967-.067.14967-.1497s-.06701-.1497-.14967-.1497-.14967.067-.14967.1497.06701.1497.14967.1497z"/><path d="m8.601 10.1596.94984.2533c.00576 0 .01727.0058.02303.0058.08635.0403.63903.2705.18421.9901l-.05757-.1785s.33389-.3972-.14967-.5699l-.99014-.236"/><path d="m8.57796 10.3841c.05087 0 .09211-.0412.09211-.0921s-.04124-.0921-.09211-.0921-.0921.0412-.0921.0921.04123.0921.0921.0921z"/><path d="m20.736 4.7196-.3339 3.06829c-.0403.3454-.2706.63323-.5929.74836l-1.8882.66202c-.2936.10362-.6966-.03454-.8405-.30511-.0057-.01727-.0173-.03454-.023-.04605l-.4836-1.20889c-.1727-.36843-.023-.81169.3339-1.00166l3.7303-1.97452c.0461-.0403.1036 0 .0979.05756zm-.2994 1.33554.0864-.6505c-.8405.1727-1.8767.57567-2.3948 1.52551-.3396.62172-.2878 1.18011-.282 1.24343l.0345-.00575.5814-.213c.0461-1.1283 1.0823-1.68094 1.9745-1.89969zm-.3223.9556s-.9153.12089-.8175 1.29525c0 0 .8405-.12089.8175-1.29525z"/><path d="m4.5368 15.1161c.07948 0 .14392-.0645.14392-.1439 0-.0795-.06444-.144-.14392-.144s-.14392.0645-.14392.144c0 .0794.06444.1439.14392.1439z"/><path d="m11.8362 16.5783c-.259.4202-.662.6505-1.1686.6505-.3972 0-.69078-.1382-.97861-.403-.01727-.0173-.54112-.5008-.63898-.5872-.01152-.0115-.02303-.0173-.03454-.023-.05757-.0288-.12089-.0518-.18422-.0633l-3.32733-.5124c-.13816-.023-.23027-.1496-.20724-.2878l.04029-.5123c0-.0864.10938-.1727.19573-.1958l4.30021-1.0534c.07483-.0173.15543-.0173.23029-.0058l2.8207.6102c.0518.0115.0979.0403.1382.0748.0921.0979.1439.2533.0748.3685 0-.0058-1.2549 1.9284-1.2607 1.94zm-5.40546-1.4737-.01727.2878c-.00576.0921.06332.1727.14967.19l2.40052.3914c.0921.0173.17845-.046.18997-.1439l.0921-.6447c.01727-.1382-.08635-.2649-.23026-.2649l-2.39477-.0057c-.09786-.0058-.18996.0806-.18996.19zm4.24266-.0231c-.403 0-.73111.3282-.73111.7311 0 .403.32811.7311.73111.7311.4029 0 .7311-.3281.7311-.7311-.0058-.4087-.3282-.7311-.7311-.7311z"/><path d="m4.52529 15.2139c.13989 0 .2533-.1134.2533-.2533s-.11341-.2533-.2533-.2533c-.13988 0-.25329.1134-.25329.2533s.11341.2533.25329.2533z"/><path d="m10.6734 16.4977c.3815 0 .6908-.3093.6908-.6908s-.3093-.6908-.6908-.6908-.69081.3093-.69081.6908.30931.6908.69081.6908z"/><path d="m11.9398 15.8069c0 .7023-.5699 1.2664-1.2664 1.2664-.70233 0-1.26648-.5699-1.26648-1.2664 0-.7023.56991-1.2665 1.26648-1.2665.6965 0 1.2664.5699 1.2664 1.2665zm-1.2664-.5527c-.3051 0-.5584.2476-.5584.5584 0 .3051.2475.5584.5584.5584.3051 0 .5584-.2475.5584-.5584-.0058-.3108-.2533-.5584-.5584-.5584z"/><path d="m13.2754 16.0083-2.6653.1037c-.1037-.0173-.1958-.0922-.2303-.2015-.0576-.1612.0288-.3339.19-.3857.0287-.0115.0575-.0173.0863-.0173l2.602.1094c.0864 0 .1612.0518.19.1324.0345.1036-.0173.213-.1209.2475-.0173.0058-.0345.0115-.0518.0115z"/><path d="m10.6734 16.0486c.1335 0 .2418-.1082.2418-.2418 0-.1335-.1083-.2417-.2418-.2417s-.2418.1082-.2418.2417c0 .1336.1083.2418.2418.2418z"/><path d="m13.7705 16.0256h-1.0247c-.0633 0-.1209-.0518-.1209-.1209v-.1842c0-.0633.0518-.1209.1209-.1209h1.0247c.0633 0 .1208.0518.1208.1209v.1842c0 .0633-.0518.1209-.1208.1209z"/><path d="m13.2639 16.0083c.1081 0 .1957-.0876.1957-.1957s-.0876-.1957-.1957-.1957-.1958.0876-.1958.1957.0877.1957.1958.1957z"/><path d="m16.5855 4.78293-1.5313.3454c-.0806.01727-.1554-.03454-.1785-.10938l-.0518-.21875c-.0172-.08059.0346-.15543.1094-.17846l1.5313-.3454c.0806-.01727.1554.03454.1784.10938l.0518.21875c.0173.08635-.0288.16119-.1093.17846z"/><path d="m16.5279 5.01317c.2798 0 .5066-.22681.5066-.50659 0-.27977-.2268-.50658-.5066-.50658s-.5066.22681-.5066.50658c0 .27978.2268.50659.5066.50659z"/><path d="m16.453 4.94407c.2194 0 .3973-.17783.3973-.3972 0-.21938-.1779-.39721-.3973-.39721-.2193 0-.3972.17783-.3972.39721 0 .21937.1779.3972.3972.3972z"/><path d="m16.8042 4.47203.6908-.05181c.0518-.00576.0979.02303.1151.07484l.0403.11513c.0173.05181-.0115.10362-.0633.10362-.0633.00576-.8808.2648-1.0362.55264-.0403.07483-.0806.07483-.1094.05181-.0403-.02303-.0748-.06333-.0863-.10938-.0058-.03454-.0115-.06908 0-.09786"/></g><path d="m16.8042 4.47203.6908-.05181c.0518-.00576.0979.02303.1151.07484l.0403.11513c.0173.05181-.0115.10362-.0633.10362-.0633.00576-.8808.2648-1.0362.55264-.0403.07483-.0806.07483-.1094.05181-.0403-.02303-.0748-.06333-.0863-.10938-.0058-.03454-.0115-.06908 0-.09786" stroke="#0075b0" stroke-linecap="round" stroke-linejoin="round" stroke-miterlimit="10" stroke-width=".402965"/><path d="m17.5353 4.96136h-.8059c-.0749 0-.144-.06333-.144-.14392v-.21875c0-.07484.0634-.14392.144-.14392h.8059c.0748 0 .1439.06333.1439.14392v.21875c-.0057.08059-.0691.14392-.1439.14392z" fill="#0075b0"/><path d="m16.5279 5.22618c.2798 0 .5066-.2268.5066-.50658s-.2268-.50659-.5066-.50659-.5066.22681-.5066.50659.2268.50658.5066.50658z" fill="#0075b0"/><path d="m16.453 5.15709c.2194 0 .3973-.17784.3973-.39721s-.1779-.39721-.3973-.39721c-.2193 0-.3972.17784-.3972.39721s.1779.39721.3972.39721z" fill="#0075b0"/><path d="m16.5855 5.00168-1.5313.3454c-.0806.01727-.1554-.03454-.1785-.10938l-.0518-.21875c-.0172-.08059.0346-.15543.1094-.17846l1.5313-.3454c.0806-.01727.1554.03454.1784.10938l.0518.21875c.0173.0806-.0288.15543-.1093.17846z" fill="#0075b0"/><path d="m16.833 4.68504.6908-.05181c.0518-.00575.0978.02303.1151.07484l.0403.11513c.0173.05181-.0115.10362-.0633.10362-.0633.00576-.8808.26481-1.0362.55264-.0403.07484-.0806.07484-.1094.05181-.0403-.02303-.0748-.06332-.0863-.10938-.0058-.03454-.0115-.06908 0-.09786" fill="#0075b0"/><path d="m16.833 4.68504.6908-.05181c.0518-.00575.0978.02303.1151.07484l.0403.11513c.0173.05181-.0115.10362-.0633.10362-.0633.00576-.8808.26481-1.0362.55264-.0403.07484-.0806.07484-.1094.05181-.0403-.02303-.0748-.06332-.0863-.10938-.0058-.03454-.0115-.06908 0-.09786" stroke="#0075b0" stroke-linecap="round" stroke-linejoin="round" stroke-miterlimit="10" stroke-width=".402965"/><path d="m14.9678 5.41038c.194 0 .3512-.15722.3512-.35116 0-.19393-.1572-.35115-.3512-.35115-.1939 0-.3511.15722-.3511.35115 0 .19394.1572.35116.3511.35116z" fill="#0075b0"/><path d="m16.9654 15.6572h-.1324c-.0461 0-.0864-.0403-.0864-.0863v-1.2377c0-.0461.0403-.0864.0864-.0864h.1324c.046 0 .0863.0403.0863.0864v1.2377c-.0057.046-.0403.0863-.0863.0863z" fill="#0075b0"/><path d="m22.3478 15.6572h-.1324c-.046 0-.0863-.0403-.0863-.0863v-1.2377c0-.0461.0403-.0864.0863-.0864h.1324c.0461 0 .0864.0403.0864.0864v1.2377c0 .046-.0345.0863-.0864.0863z" fill="#0075b0"/></svg>