<svg xmlns="http://www.w3.org/2000/svg" viewBox="0 0 113 74">
  <path d="M101.5 62.7c-2.9 2.9-6.9 4.7-11.3 4.7s-8.4-1.8-11.2-4.7c-2.9-2.9-4.7-6.9-4.7-11.4s1.8-8.5 4.7-11.4c1.1-1.1 2.4-2.1 3.8-2.8l4.9 12.4c-.4.5-.6 1.1-.6 1.8 0 1.8 1.4 3.2 3.2 3.2 1.8 0 3.2-1.4 3.2-3.2 0-1.5-1.1-2.8-2.5-3.1l-4.9-12.4c1.3-.4 2.8-.6 4.2-.6 4.4 0 8.4 1.8 11.3 4.7 2.9 2.9 4.7 6.9 4.7 11.4-.1 4.5-1.9 8.5-4.8 11.4M42.8 43c-1-2.7-2.5-5.2-4.5-7.4l2-1.9 3.5 9.5c-.3-.1-.6-.2-1-.2m-9.4 19.7c-2.9 2.9-6.8 4.7-11.2 4.7-4.4 0-8.4-1.8-11.3-4.7-2.9-2.9-4.7-6.9-4.7-11.4 0-4.2 1.5-7.9 4.1-10.8 4.9 4.5 11.9 10.9 11.9 10.9l15.7 2c-.4 3.6-2 6.8-4.5 9.3m56.8-33.8c-2.3 0-4.5.3-6.5 1L82.2 26c2.7-.8 5.6-1.9 8.6-3.9 8-4.4 8.6-22 8.6-22S83.8 6.3 81.6 7.2l-.1-.4c-.6-2-2.4-3.3-4.4-3.3-.4 0-.9.1-1.3.2l-5.6 1.7c-.9.3-1.5 1.3-1.2 2.2.3 1 1.3 1.5 2.2 1.2l5.6-1.7h.3c.5 0 .9.3 1 .8l.4 1.3-14.2 29.7c-1.3 2.5-2.4 4.1-3.6 5-1.3 1.1-2.6 1.4-4.3 1.4-.7 0-1.3-.1-2.1-.1-1-.1-3.6-.6-6.4-1.1l-8.3-22.6 6.7-.9s.1-.4-.1-1.8-1.5-1.7-2.6-1.5c-1.1.2-9 1.2-10.2 1.4-1.2.2-2.1 1.1-1.9 1.9.2.8.4 2.1.4 2.1l4.2-.6 3 8.2-3.2 3.1c-4-3.3-9.1-5.3-14.6-5.3-6.5 0-12.4 2.7-16.6 7.1 0 .1.4.5 1.2 1.2-3.6 4-5.8 9.3-5.8 15.1 0 12.4 9.9 22.4 22.2 22.4 11.3 0 20.6-8.5 22-19.5 1.4.2 2.8.4 4 .5l.4 1c.3.7.9 1.2 1.6 1.2.2 0 .4 0 .6-.1.8-.3 1.2-1.1 1.1-1.8h.3c4 0 7-1.1 9.8-3.7 2-1.9 3.6-4.7 4.9-7.3l1.2-2.7c1.1-2.3 3.9-7.8 4.5-9.2 1.4-2.8 3.6-4 6.2-5l1.6 4.2c-7.3 3.7-12.3 11.3-12.3 20.1C68.2 64 78.1 74 90.4 74c12.2 0 22.2-10 22.2-22.4-.2-12.7-10.1-22.7-22.4-22.7" fill="#004C73" fill-rule="nonzero"/>
</svg>
