<svg fill="none" viewBox="0 0 24 24" xmlns="http://www.w3.org/2000/svg">
  <path d="m.939 10.983-.052.368a5.09 5.09 0 0 1 1.054-.737l-.392-.069a.52.52 0 0 0-.61.438zM8.595 16.026H7.571a.122.122 0 0 1-.121-.121v-.184c0-.064.051-.121.12-.121h1.025c.064 0 .121.051.121.12v.185c-.006.063-.057.12-.12.12z" fill="#0075b0"/>
  <path d="m8.066 16.008 2.665.104a.293.293 0 0 0 .23-.202.298.298 0 0 0-.19-.385.23.23 0 0 0-.086-.018l-2.602.11a.199.199 0 0 0-.19.132.193.193 0 0 0 .12.248.167.167 0 0 0 .053.011z" fill="#0075b0"/>
  <path d="M8.083 16.008a.196.196 0 1 0 0-.391.196.196 0 0 0 0 .391z" fill="#0075b0"/>
  <path d="M8.163 14.96a3.639 3.639 0 1 1-7.277 0 3.639 3.639 0 0 1 7.277 0zm-3.638-3.983a3.985 3.985 0 0 0-3.983 3.984c0 2.199 1.784 3.983 3.983 3.983a3.985 3.985 0 0 0 3.984-3.983 3.985 3.985 0 0 0-3.984-3.984z" fill="#0075b0"/>
  <path d="M8.952 14.96c0 2.447-1.98 4.427-4.427 4.427S.098 17.407.098 14.961a4.428 4.428 0 0 1 8.854 0zm-4.427-3.983a3.985 3.985 0 0 0-3.983 3.984 3.985 3.985 0 0 0 3.983 3.983 3.985 3.985 0 0 0 3.984-3.983c0-2.2-1.785-3.984-3.984-3.984z" fill="#0075b0"/>
  <path d="M4.525 16.054a1.094 1.094 0 1 0 0-2.187 1.094 1.094 0 0 0 0 2.187zM23.211 14.96a3.638 3.638 0 1 1-7.277 0 3.638 3.638 0 0 1 7.277 0zm-3.638-3.983a3.985 3.985 0 0 0-3.983 3.984c0 2.199 1.784 3.983 3.983 3.983 2.2 0 3.984-1.784 3.984-3.983a3.985 3.985 0 0 0-3.984-3.984z" fill="#0075b0"/>
  <path d="M24 14.96a4.425 4.425 0 0 1-4.427 4.427 4.425 4.425 0 0 1-4.427-4.426 4.425 4.425 0 0 1 4.427-4.427A4.428 4.428 0 0 1 24 14.96zm-4.427-3.983a3.985 3.985 0 0 0 0 7.967c2.2 0 3.984-1.784 3.984-3.983 0-2.2-1.785-3.984-3.984-3.984z" fill="#0075b0"/>
  <path d="M19.573 15.905a.944.944 0 1 0 0-1.888.944.944 0 0 0 0 1.888zM15.296 16.13a4.437 4.437 0 0 1 5.112-5.515l.006-.335c0-.028-.023-.057-.052-.057a5.16 5.16 0 0 0-.795-.063 4.81 4.81 0 0 0-4.812 4.812c0 .443.178 1.215.242 1.485.011.04.057.046.08.012zM9.234 13.332c-.455-1.071-1.819-3.299-4.899-3.299-2.538 0-3.908 1.675-4.317 2.262-.052.07.017.167.103.144l1.923-.478s2.28-.587 2.28 2.718z" fill="#0075b0"/>
  <path d="m16.367 9.377 1.422 3.448c.011.023.023.04.034.063l1.543 2.194a.237.237 0 0 0 .449-.093.233.233 0 0 0-.023-.109l-1.526-2.44c-.011-.024-.023-.047-.034-.076l-.518-1.629c-.26-.806-.576-4.853-.576-4.853l-1.25 1.042z" fill="#0075b0"/>
  <path d="M19.953 14.396c.236.352.184.795-.104.99-.293.196-.72.064-.95-.287-.235-.351-.345-1.67-.345-1.67s1.163.61 1.4.967z" fill="#0075b0"/>
  <path d="M19.573 15.156a.196.196 0 1 0 0-.391.196.196 0 0 0 0 .391z" fill="#0075b0"/>
  <path d="M19.573 15.208a.248.248 0 1 0 0-.495.248.248 0 0 0 0 .495zM9.32 10.51l-.437.139-.495-1.56.438-.144zM6.972 8.57l.213.37a.119.119 0 0 0 .098.057l.92.006" fill="#0075b0"/>
  <path d="m6.972 8.57.213.37a.119.119 0 0 0 .098.057l.92.006" stroke="#0075b0" stroke-miterlimit="10" stroke-width=".173"/>
  <path d="m7.605 8.611.236.49a.1.1 0 0 0 .104.057l.443-.063" fill="#0075b0"/>
  <path d="m7.605 8.611.236.49a.1.1 0 0 0 .104.057l.443-.063" stroke="#0075b0" stroke-miterlimit="10" stroke-width=".173"/>
  <g fill="#0075b0">
    <path d="M8.48 9.175a.478.478 0 1 0 0-.955.478.478 0 0 0 0 .955z"/>
    <path d="M8.192 8.128c-.195-.093-1.082-.42-1.48.35a.17.17 0 0 0 .11.237l.95.19s.541.115.685-.144a.164.164 0 0 1 .144-.08l1.813-.024s.087-.535-.477-.535l-1.658.023a.119.119 0 0 1-.087-.017zM6.43 15.105l-.017.287a.187.187 0 0 0 .15.19l2.4.392a.161.161 0 0 0 .19-.144l.093-.645a.233.233 0 0 0-.23-.265l-2.395-.005c-.098-.006-.19.08-.19.19zm2.217-4.853.662-.15.87 2.567a.2.2 0 0 0 .16.139l2.177.431a.19.19 0 0 0 .201-.086l3.281-5.083a.22.22 0 0 0 .03-.179l-.168-.587c-.017-.051-.063-.092-.115-.092l-.098-.006c-.069-.005-.126-.046-.144-.115l-.057-.195a.613.613 0 0 1 .063-.501l1.762-1.497a.066.066 0 0 1 .109.058l-.08 1.082-1.077.955a.146.146 0 0 0-.046.156l.15.581.748 1.03-4.974 7.91c-.288.46-.794.737-1.335.737h-.323c-.293 0-.576-.11-.789-.305l-.57-.512a.721.721 0 0 0-.35-.173l-4.56-.823a.34.34 0 0 1-.276-.334v-.063a1.185 1.185 0 0 1 .955-1.134l4.612-.933a.092.092 0 0 0 .069-.12z"/>
    <path d="M12.337 15.795c0 .921-.748 1.664-1.664 1.664a1.673 1.673 0 0 1-1.629-1.301M8.578 10.442a.15.15 0 1 0 0-.3.15.15 0 0 0 0 .3z"/>
    <path d="m8.601 10.16.95.253c.006 0 .017.006.023.006.086.04.639.27.184.99l-.057-.179s.333-.397-.15-.57l-.99-.236"/>
    <path d="M8.578 10.384a.092.092 0 1 0 0-.184.092.092 0 0 0 0 .184zM20.736 4.72l-.334 3.068a.903.903 0 0 1-.593.748l-1.888.662c-.294.104-.697-.034-.84-.305-.006-.017-.018-.034-.023-.046l-.484-1.209a.77.77 0 0 1 .334-1.001l3.73-1.975c.046-.04.104 0 .098.058zm-.3 1.335.087-.65c-.84.172-1.877.575-2.395 1.525-.34.622-.288 1.18-.282 1.244l.035-.006.581-.213c.046-1.128 1.082-1.681 1.975-1.9zm-.322.956s-.915.12-.817 1.295c0 0 .84-.12.817-1.295zM4.537 15.116a.144.144 0 1 0 0-.288.144.144 0 0 0 0 .288zM11.836 16.578c-.259.42-.662.65-1.168.65-.398 0-.691-.137-.979-.402-.017-.017-.541-.501-.639-.587a.12.12 0 0 0-.035-.023.697.697 0 0 0-.184-.064l-3.327-.512a.249.249 0 0 1-.207-.288l.04-.512c0-.087.11-.173.196-.196l4.3-1.053a.62.62 0 0 1 .23-.006l2.82.61c.053.011.099.04.14.075.091.098.143.253.074.368 0-.006-1.255 1.929-1.26 1.94zm-5.405-1.473-.018.287a.187.187 0 0 0 .15.19l2.4.392a.161.161 0 0 0 .19-.144l.093-.645a.233.233 0 0 0-.23-.265l-2.395-.005c-.098-.006-.19.08-.19.19zm4.242-.024a.732.732 0 0 0 0 1.463.732.732 0 0 0 0-1.463z"/>
    <path d="M4.525 15.214a.253.253 0 1 0 0-.507.253.253 0 0 0 0 .507zM10.673 16.498a.69.69 0 1 0 0-1.382.69.69 0 0 0 0 1.382z"/>
    <path d="M11.94 15.807a1.266 1.266 0 1 1-2.533 0 1.266 1.266 0 0 1 2.533 0zm-1.267-.553a.559.559 0 1 0 .559.559.563.563 0 0 0-.559-.559z"/>
    <path d="m13.275 16.008-2.665.104a.293.293 0 0 1-.23-.202.298.298 0 0 1 .19-.385.23.23 0 0 1 .086-.018l2.602.11c.086 0 .161.052.19.132a.193.193 0 0 1-.12.248.167.167 0 0 1-.053.011z"/>
    <path d="M10.673 16.049a.242.242 0 1 0 0-.484.242.242 0 0 0 0 .484zM13.77 16.026h-1.024a.122.122 0 0 1-.121-.121v-.184c0-.064.052-.121.12-.121h1.026c.063 0 .12.051.12.12v.185c0 .063-.052.12-.12.12z"/>
    <path d="M13.264 16.008a.196.196 0 1 0 0-.391.196.196 0 0 0 0 .391zM16.585 4.783l-1.53.345a.155.155 0 0 1-.18-.11l-.051-.218a.155.155 0 0 1 .11-.178l1.53-.346a.155.155 0 0 1 .179.11l.052.218c.017.087-.029.162-.11.179z"/>
    <path d="M16.528 5.013a.507.507 0 1 0 0-1.013.507.507 0 0 0 0 1.013z"/>
    <path d="M16.453 4.944a.397.397 0 1 0 0-.794.397.397 0 0 0 0 .794z"/>
    <path d="m16.804 4.472.691-.052a.106.106 0 0 1 .115.075l.04.115c.018.052-.011.104-.063.104-.063.006-.88.265-1.036.552-.04.075-.08.075-.11.052a.182.182 0 0 1-.086-.11c-.006-.034-.011-.068 0-.097"/>
  </g>
  <path d="m16.804 4.472.691-.052a.106.106 0 0 1 .115.075l.04.115c.018.052-.011.104-.063.104-.063.006-.88.265-1.036.552-.04.075-.08.075-.11.052a.182.182 0 0 1-.086-.11c-.006-.034-.011-.068 0-.097" stroke="#0075b0" stroke-linecap="round" stroke-linejoin="round" stroke-miterlimit="10" stroke-width=".403"/>
  <path d="M17.535 4.961h-.806a.146.146 0 0 1-.144-.144V4.6c0-.075.064-.144.144-.144h.806c.075 0 .144.063.144.144v.218c-.006.081-.069.144-.144.144z" fill="#0075b0"/>
  <path d="M16.528 5.226a.507.507 0 1 0 0-1.013.507.507 0 0 0 0 1.013z" fill="#0075b0"/>
  <path d="M16.453 5.157a.397.397 0 1 0 0-.794.397.397 0 0 0 0 .794z" fill="#0075b0"/>
  <path d="m16.585 5.002-1.53.345a.155.155 0 0 1-.18-.11l-.051-.218a.155.155 0 0 1 .11-.179l1.53-.345a.155.155 0 0 1 .179.11l.052.218a.15.15 0 0 1-.11.179z" fill="#0075b0"/>
  <path d="m16.833 4.685.69-.052a.106.106 0 0 1 .116.075l.04.115c.017.052-.011.104-.063.104-.063.006-.88.265-1.036.552-.04.075-.08.075-.11.052a.182.182 0 0 1-.086-.11c-.006-.034-.012-.068 0-.097" fill="#0075b0"/>
  <path d="m16.833 4.685.69-.052a.106.106 0 0 1 .116.075l.04.115c.017.052-.011.104-.063.104-.063.006-.88.265-1.036.552-.04.075-.08.075-.11.052a.182.182 0 0 1-.086-.11c-.006-.034-.012-.068 0-.097" stroke="#0075b0" stroke-linecap="round" stroke-linejoin="round" stroke-miterlimit="10" stroke-width=".403"/>
  <path d="M14.968 5.41a.351.351 0 1 0 0-.702.351.351 0 0 0 0 .702zM16.965 15.657h-.132a.089.089 0 0 1-.086-.086v-1.238c0-.046.04-.086.086-.086h.132c.046 0 .087.04.087.086v1.238c-.006.046-.04.086-.087.086zM22.348 15.657h-.133a.089.089 0 0 1-.086-.086v-1.238c0-.046.04-.086.086-.086h.133c.046 0 .086.04.086.086v1.238a.085.085 0 0 1-.086.086z" fill="#0075b0"/>
</svg>
