<svg xmlns="http://www.w3.org/2000/svg" viewBox="0 0 113 113">
  <g fill-rule="nonzero" fill="none">
    <path fill="#FFF" d="M0 0h113v113H0z"/>
    <path d="M88.107 72.516a11.343 11.343 0 0 1-8.036 3.342c-3.129 0-5.973-1.28-7.964-3.342a11.385 11.385 0 0 1-3.343-8.107c0-3.2 1.28-6.045 3.343-8.107.782-.782 1.706-1.493 2.702-1.99l3.484 8.817c-.284.355-.426.782-.426 1.28 0 1.28.995 2.275 2.275 2.275 1.28 0 2.276-.995 2.276-2.275a2.285 2.285 0 0 0-1.778-2.205l-3.484-8.817c.924-.285 1.99-.427 2.986-.427 3.13 0 5.974 1.28 8.036 3.342a11.385 11.385 0 0 1 3.342 8.107c-.071 3.2-1.351 6.044-3.413 8.107m-41.743-14.01a16.105 16.105 0 0 0-3.2-5.262l1.423-1.35 2.489 6.755c-.214-.071-.427-.142-.712-.142M39.68 72.516c-2.062 2.062-4.836 3.342-7.964 3.342-3.13 0-5.974-1.28-8.036-3.342a11.385 11.385 0 0 1-3.342-8.107c0-2.987 1.066-5.618 2.915-7.68 3.485 3.2 8.463 7.751 8.463 7.751l11.164 1.422c-.284 2.56-1.422 4.836-3.2 6.614M80.071 48.48c-1.635 0-3.2.213-4.622.711l-1.067-2.773c1.92-.57 3.982-1.351 6.116-2.774C86.187 40.516 86.613 28 86.613 28s-11.093 4.409-12.657 5.049l-.072-.285a3.264 3.264 0 0 0-3.128-2.346c-.285 0-.64.07-.925.142l-3.982 1.209c-.64.213-1.067.924-.853 1.564.213.711.924 1.067 1.564.854l3.982-1.21h.214c.355 0 .64.214.71.57l.285.924-10.098 21.12c-.924 1.778-1.706 2.916-2.56 3.556-.924.782-1.849.995-3.057.995-.498 0-.925-.07-1.494-.07-.71-.072-2.56-.428-4.55-.783l-5.903-16.071 4.764-.64s.071-.285-.07-1.28c-.143-.996-1.067-1.21-1.85-1.067-.782.142-6.4.853-7.253.996-.853.142-1.493.782-1.351 1.35.142.57.284 1.494.284 1.494l2.987-.427 2.133 5.832-2.275 2.204c-2.845-2.347-6.471-3.769-10.382-3.769-4.623 0-8.818 1.92-11.805 5.049 0 .071.285.356.853.853A16.011 16.011 0 0 0 16 64.551c0 8.818 7.04 15.929 15.787 15.929 8.035 0 14.649-6.044 15.644-13.867.996.143 1.991.285 2.845.356l.284.711c.213.498.64.853 1.138.853.142 0 .284 0 .426-.07.57-.214.854-.783.783-1.28h.213c2.844 0 4.978-.783 6.969-2.632 1.422-1.351 2.56-3.342 3.484-5.191l.854-1.92c.782-1.636 2.773-5.547 3.2-6.542.995-1.991 2.56-2.845 4.409-3.556l1.137 2.987a15.99 15.99 0 0 0-8.746 14.293c0 8.818 7.04 15.93 15.786 15.93C88.89 80.551 96 73.44 96 64.621c-.142-9.03-7.182-16.142-15.929-16.142" fill="#004C73"/>
  </g>
</svg>
